<svg xmlns="http://www.w3.org/2000/svg" x="0px" y="0px"
width="50" height="50"
viewBox="0 0 172 172"
style=" fill:#000000;"><g fill="none" fill-rule="nonzero" stroke="none" stroke-width="1" stroke-linecap="butt" stroke-linejoin="miter" stroke-miterlimit="10" stroke-dasharray="" stroke-dashoffset="0" font-family="none" font-weight="none" font-size="none" text-anchor="none" style="mix-blend-mode: normal"><path d="M0,172v-172h172v172z" fill="none"></path><g fill="#ffffff"><path d="M86,165.12c-42.58344,0 -77.33281,-33.17719 -79.12,-75.53219c-0.06719,-1.70656 1.11531,-3.21156 2.795,-3.52063c1.67969,-0.33594 3.3325,0.63156 3.89688,2.24406c8.15656,23.30063 30.35531,38.96875 55.22812,38.96875c32.25,0 58.48,-26.23 58.48,-58.48c0,-24.87281 -15.66812,-47.07156 -38.96875,-55.22812c-1.6125,-0.56438 -2.56656,-2.23063 -2.24406,-3.89688c0.30906,-1.67969 1.84094,-2.86219 3.52063,-2.795c42.355,1.78719 75.53219,36.53656 75.53219,79.12c0,43.63156 -35.48844,79.12 -79.12,79.12z"></path></g></g></svg>